<svg width="733" height="340" viewBox="0 0 733 340" fill="none" xmlns="http://www.w3.org/2000/svg" role="img" aria-label="Spoon">
  <path d="M114.007 211.377C94.4678 211.377 78.8844 207.143 67.2575 198.675C55.7115 190.088 49.4139 178.151 48.3643 162.862H82.2754C83.5673 170.271 86.9585 175.799 92.4489 179.445C98.0201 183.091 105.61 184.914 115.219 184.914C123.939 184.914 130.398 183.62 134.678 181.033C139.038 178.328 141.217 174.329 141.217 169.036C141.217 164.92 139.845 161.744 137.099 159.509C134.516 157.157 130.156 155.334 124.1 154.041L93.9027 147.689C80.2574 144.749 70.1646 139.986 63.5437 133.399C57.0037 126.813 53.6935 118.168 53.6935 107.465C53.6935 93.9396 58.7804 83.3544 69.0346 75.7098C79.3696 68.0649 93.4184 64.2424 111.182 64.2424C129.025 64.2424 143.478 68.2413 154.378 76.239C165.359 84.2369 171.415 95.4099 172.545 109.759H138.715C135.404 96.3506 125.554 89.6466 109.244 89.6466C102.058 89.6466 96.4061 90.9409 92.2883 93.5279C88.1704 95.9977 86.1518 99.5851 86.1518 104.29C86.1518 111.347 91.1578 115.934 101.331 118.051L132.901 124.578C147.111 127.519 157.447 132.34 163.906 139.044C170.365 145.748 173.676 154.863 173.676 166.39C173.676 180.621 168.427 191.677 158.092 199.556C147.919 207.437 133.143 211.377 114.007 211.377ZM194.507 251.601V135.163H178.682V103.407H211.14V121.049H218.567C222.282 114.816 227.368 109.994 233.666 106.583C240.206 103.055 247.878 101.29 256.84 101.29C267.982 101.29 277.348 103.643 284.857 108.347C292.366 112.934 298.099 119.344 301.974 127.577C305.85 135.81 307.787 145.396 307.787 156.334C307.787 167.272 305.931 176.916 302.136 185.267C298.422 193.5 292.931 199.909 285.745 204.496C278.559 209.083 269.839 211.377 259.666 211.377C252.076 211.377 245.616 210.024 240.207 207.319C234.958 204.496 230.76 200.615 227.691 195.675H226.965V251.601H194.507ZM250.623 183.15C259.02 183.15 265.156 180.739 269.193 175.917C273.311 171.094 275.329 164.567 275.329 156.334C275.329 148.101 273.311 141.573 269.193 136.751C265.156 131.929 259.02 129.518 250.623 129.518C243.356 129.518 237.623 131.576 233.344 135.693C229.145 139.691 226.965 145.278 226.965 152.452V160.215C226.965 167.39 229.145 173.035 233.344 177.151C237.623 181.15 243.356 183.15 250.623 183.15Z" fill="#022709"/>
  <path d="M496.158 211.376C484.531 211.376 474.358 209.141 465.638 204.672C456.918 200.085 450.135 193.675 445.372 185.443C440.608 177.092 438.266 167.33 438.266 156.157C438.266 144.983 440.608 135.28 445.372 127.047C450.135 118.815 456.918 112.464 465.638 107.994C474.358 103.525 484.531 101.29 496.319 101.29C508.107 101.29 518.2 103.525 526.678 107.994C535.237 112.464 541.938 118.815 546.621 127.047C551.304 135.28 553.646 145.042 553.646 156.333C553.646 167.506 551.304 177.269 546.621 185.619C541.938 193.852 535.237 200.203 526.678 204.672C518.12 209.141 507.946 211.376 496.158 211.376ZM496.158 183.149C504.232 183.149 510.449 180.738 514.648 175.916C519.008 170.976 521.188 164.389 521.188 156.157C521.188 147.924 519.008 141.455 514.648 136.751C510.449 131.928 504.232 129.517 496.158 129.517C487.922 129.517 481.624 131.928 477.264 136.751C472.904 141.455 470.725 147.924 470.725 156.157C470.725 164.389 472.904 170.976 477.264 175.916C481.624 180.738 487.922 183.149 496.158 183.149ZM573.831 209.259V135.163H557.925V103.407H590.384V121.049H597.812C602.011 114.934 607.178 110.17 613.314 106.759C619.531 103.231 627.525 101.467 637.133 101.467C652.151 101.467 663.697 105.524 671.69 113.639C679.845 121.755 683.882 132.634 683.882 146.277V209.259H651.425V152.629C651.425 145.336 649.486 139.808 645.611 136.045C641.816 132.281 636.245 130.4 628.817 130.4C621.469 130.4 615.817 132.281 611.942 136.045C608.147 139.808 606.289 145.336 606.289 152.629V209.259H573.831Z" fill="#022709"/>
  <path d="M439.8 231.998C426.397 232.869 408.796 247.419 381.99 234.873C355.264 222.327 318.203 151.514 348.401 121.307C380.455 89.3231 451.589 132.482 461.439 155.416C471.37 178.35 459.502 199.762 458.613 213.179C458.048 226.596 582.39 278.612 544.038 316.947C505.766 355.282 453.526 231.127 439.8 231.998Z" fill="#6D9775"/>
  <path d="M396.604 169.503C384.492 174.08 373.027 175.757 362.207 174.533C351.388 173.187 341.86 169.183 333.625 162.523C325.389 155.694 319.172 146.473 314.731 134.861C310.371 123.249 308.999 112.24 310.613 101.835C312.39 91.3831 316.912 82.1244 324.259 74.0588C331.526 65.993 341.296 59.6486 353.488 55.0255C365.76 50.4025 377.145 48.749 387.641 50.0652C398.38 51.3351 407.746 55.3236 415.901 62.0305C423.975 68.7374 430.273 77.958 434.713 89.6923C439.154 101.304 440.527 112.374 438.912 122.901C437.217 133.307 432.856 142.519 425.67 150.539C418.484 158.559 408.796 164.88 396.604 169.503ZM385.461 140.167C393.939 136.978 399.43 132.045 401.933 125.369C404.516 118.524 404.193 110.825 400.883 102.269C397.653 93.7125 392.889 87.845 386.511 84.6662C380.213 81.3186 372.866 81.2403 364.388 84.4304C355.829 87.6665 350.258 92.6451 347.675 99.3676C344.929 105.967 345.252 113.545 348.482 122.101C351.711 130.657 356.555 136.647 363.015 140.07C369.474 143.371 376.903 143.403 385.461 140.167Z" fill="#022709"/>
</svg>
